<svg xmlns="http://www.w3.org/2000/svg" width="1744.895" height="747.029" viewBox="0 0 1744.895 747.029">
  <g id="Path_2" data-name="Path 2" transform="translate(59.358 31.634)" fill="#fbfbfb">
    <path d="M 233.2919616699219 714.8948974609375 C 225.5345764160156 714.8948974609375 217.7236175537109 713.8170166015625 210.0757598876953 711.6915893554688 C 202.1883850097656 709.4994506835938 194.1998138427734 706.1168212890625 186.3319549560547 701.6380004882813 C 177.9443359375 696.8632202148438 169.7181549072266 690.8694458007813 161.8814849853516 683.8232421875 C 154.3231506347656 677.0272827148438 146.92529296875 669.0703735351563 139.8931427001953 660.1737060546875 C 133.1252899169922 651.611572265625 126.516242980957 641.9513549804688 120.2495727539063 631.4615478515625 C 114.23291015625 621.389892578125 108.3733825683594 610.2879638671875 102.8333892822266 598.4639282226563 C 82.97219848632813 556.0741577148438 66.20933532714844 502.4979858398438 53.01029205322266 439.2236938476563 C 47.42862319946289 412.466796875 42.46981430053711 383.8522644042969 38.27148056030273 354.1744079589844 C 34.58314895629883 328.1027526855469 31.4583854675293 301.0682373046875 28.98386192321777 273.8213195800781 C 23.3631477355957 211.9341888427734 22.7562427520752 168.1118011474609 22.7562427520752 152.1432342529297 C 22.7562427520752 144.0408477783203 22.03457641601563 136.4339447021484 20.61124229431152 129.5337066650391 C 19.28505325317383 123.1051330566406 17.3150520324707 117.120849609375 14.75600528717041 111.7472763061523 C 12.39624309539795 106.7920379638672 9.473385810852051 102.2263259887695 6.069100379943848 98.17656707763672 C 2.97505259513855 94.49608612060547 -0.5989949703216553 91.14442443847656 -4.554233074188232 88.21466064453125 C -8.075185775756836 85.6065673828125 -11.99780464172363 83.25942230224609 -16.21327972412109 81.23847198486328 C -19.84351921081543 79.49822998046875 -23.81399536132813 77.94227600097656 -28.01447105407715 76.61370849609375 C -35.72566223144531 74.17465972900391 -42.80804443359375 72.90013885498047 -48.49875640869141 71.87609100341797 C -51.61399459838867 71.31561279296875 -54.30447006225586 70.83156585693359 -56.14851760864258 70.30275726318359 C -58.30590057373047 69.68394470214844 -58.8104248046875 69.12989807128906 -58.85375595092773 68.77418518066406 C -58.89328002929688 68.45108795166016 -58.63185119628906 67.68370819091797 -56.4397087097168 66.17346954345703 C -54.57851791381836 64.89109039306641 -51.6666145324707 63.28180313110352 -47.27566146850586 61.10870742797852 C -38.67566299438477 56.8520393371582 -25.03494644165039 50.75085067749023 -4.387566566467285 41.51585006713867 C 3.504576444625854 37.9858512878418 12.44981479644775 33.98489761352539 22.46124267578125 29.48323059082031 C 29.3100528717041 26.40394592285156 36.94576644897461 23.50156402587891 45.1564826965332 20.85727882385254 C 53.17528915405273 18.27466011047363 61.97148132324219 15.86442089080811 71.30029296875 13.69323062896729 C 89.23957824707031 9.518230438232422 109.9391021728516 6.046088218688965 132.8240966796875 3.372992753982544 C 154.4052886962891 0.852278470993042 178.6279144287109 -1.038673877716064 204.8193359375 -2.247245311737061 C 229.2602844238281 -3.374864339828491 256.2638549804688 -3.946769237518311 285.07958984375 -3.946769237518311 C 338.7029113769531 -3.946769237518311 400.9371948242188 -1.999626278877258 475.3388671875 2.00537371635437 C 541.01123046875 5.540611743927002 607.5195922851563 10.17989730834961 671.837890625 14.66656398773193 C 781.3974609375 22.30870628356934 884.8812255859375 29.52727890014648 961.347900390625 29.52727890014648 C 982.2474365234375 29.52727890014648 1003.490051269531 28.96489715576172 1026.28955078125 27.80823135375977 C 1046.522705078125 26.78180313110352 1067.469360351563 25.31013488769531 1090.326904296875 23.30894470214844 C 1132.669555664063 19.6022777557373 1174.459838867188 14.67799282073975 1214.874145507813 9.915849685668945 C 1289.126708984375 1.16632604598999 1359.26123046875 -7.097721576690674 1424.809326171875 -7.097721576690674 C 1440.403198242188 -7.097721576690674 1455.443603515625 -6.615578651428223 1469.512451171875 -5.664388179779053 C 1484.44677734375 -4.654626369476318 1498.904541015625 -3.075816869735718 1512.48388671875 -0.9715310335159302 C 1526.75 1.239183187484741 1540.586303710938 4.112754821777344 1553.607666015625 7.568944931030273 C 1567.186279296875 11.17323112487793 1580.362426757813 15.53894519805908 1592.76953125 20.54489707946777 L 1594.175537109375 21.11227798461914 L 1593.382934570313 19.81989669799805 C 1585.707885742188 7.304500579833984 1579.910400390625 -2.403539896011353 1578.34765625 -5.335224151611328 C 1580.579345703125 -4.543651580810547 1586.04638671875 -2.340394258499146 1591.773803710938 -0.03224533796310425 C 1597.620361328125 2.323696613311768 1604.23291015625 4.988596439361572 1609.977172851563 7.207691192626953 C 1610.329711914063 13.19756412506104 1609.624633789063 18.75403785705566 1607.880249023438 23.73182487487793 C 1606.9677734375 24.08529663085938 1606.21875 24.51327705383301 1605.59619140625 25.03656387329102 L 1604.924072265625 25.60132598876953 L 1605.752685546875 25.89132690429688 C 1606.126220703125 26.02200508117676 1606.502563476563 26.14936828613281 1606.876953125 26.2718677520752 C 1605.892456054688 28.50143051147461 1604.67138671875 30.61452674865723 1603.242431640625 32.55989837646484 L 1603.163208007813 32.66775512695313 L 1603.1484375 32.80061340332031 C 1603.033447265625 33.83358764648438 1602.95361328125 34.57744216918945 1602.8984375 35.1147346496582 C 1602.790283203125 34.94783782958984 1602.666137695313 34.75518798828125 1602.523803710938 34.53299331665039 L 1602.160278320313 33.96489715576172 L 1601.722412109375 34.47799301147461 C 1600.170043945313 36.29727935791016 1598.382202148438 37.995849609375 1596.408325195313 39.52680206298828 C 1595.242431640625 40.43251800537109 1587.786743164063 42.01346969604492 1581.795776367188 43.2839469909668 C 1576.430786132813 44.42180252075195 1571.363403320313 45.4963264465332 1569.8203125 46.21489715576172 C 1566.7236328125 47.65751647949219 1563.78173828125 50.48870849609375 1560.826293945313 54.870849609375 C 1558.197143554688 58.76918411254883 1555.590576171875 63.85441970825195 1552.85693359375 70.41728210449219 C 1547.761962890625 82.65037536621094 1542.978393554688 98.23442077636719 1537.9140625 114.7334671020508 C 1534.2236328125 126.7568054199219 1530.40771484375 139.1891784667969 1526.226928710938 151.120849609375 C 1521.496948242188 164.6203765869141 1516.976928710938 175.4856109619141 1512.408325195313 184.3377532958984 C 1509.767456054688 189.4551391601563 1507.041015625 194.0220336914063 1504.304565429688 197.9115600585938 C 1501.36669921875 202.0875091552734 1498.306274414063 205.6425170898438 1495.207885742188 208.4777526855469 C 1491.924560546875 211.4822845458984 1488.48486328125 213.7832336425781 1484.984619140625 215.3165588378906 C 1481.30224609375 216.9294281005859 1477.427612304688 217.7477569580078 1473.468627929688 217.7484741210938 C 1469.117919921875 217.7491760253906 1464.517700195313 216.7632293701172 1459.795776367188 214.8175201416016 C 1454.839111328125 212.77490234375 1449.593383789063 209.6118011474609 1444.203857421875 205.4158477783203 L 1444.174560546875 205.3929901123047 L 1444.142456054688 205.3748931884766 C 1440.140014648438 203.1172790527344 1436.713623046875 202.0198974609375 1433.66796875 202.0198974609375 C 1431.386962890625 202.0198974609375 1429.37744140625 202.63037109375 1427.524780273438 203.8860931396484 C 1425.876953125 205.0029907226563 1424.386962890625 206.6151428222656 1422.969848632813 208.8148956298828 C 1420.357177734375 212.8699035644531 1418.364135742188 218.3629913330078 1416.25390625 224.1787109375 C 1413.9423828125 230.5496520996094 1411.55224609375 237.1372833251953 1408.068359375 242.7787017822266 C 1406.191528320313 245.8182373046875 1404.19677734375 248.2632293701172 1401.969848632813 250.2537078857422 C 1399.49169921875 252.4689483642578 1396.688110351563 254.1132354736328 1393.636962890625 255.1410827636719 C 1390.916015625 256.0577697753906 1387.162475585938 256.5225219726563 1382.480346679688 256.5225219726563 C 1365.3974609375 256.5232238769531 1337.390258789063 250.4589385986328 1307.738403320313 244.0387115478516 C 1290.351440429688 240.2741851806641 1272.372436523438 236.3813323974609 1255.327880859375 233.4149017333984 C 1236.001953125 230.0515594482422 1220.7802734375 228.4168090820313 1208.792724609375 228.4168090820313 C 1202.219116210938 228.4168090820313 1196.466064453125 228.9160919189453 1191.693115234375 229.9013214111328 C 1186.541015625 230.9646606445313 1182.325805664063 232.6353759765625 1179.164794921875 234.8670349121094 C 1167.38623046875 243.1832275390625 1155.247436523438 253.313232421875 1142.054077148438 265.8358459472656 C 1130.413208007813 276.8851318359375 1119.447387695313 288.3434753417969 1108.842651367188 299.4244079589844 C 1092.566528320313 316.4317932128906 1077.19287109375 332.495849609375 1062.033569335938 344.2377624511719 C 1053.950317382813 350.4989318847656 1046.535522460938 355.0720520019531 1039.365478515625 358.2189331054688 C 1035.515502929688 359.9087219238281 1031.67724609375 361.1991882324219 1027.956909179688 362.0549011230469 C 1024.0810546875 362.9460754394531 1020.190307617188 363.3984680175781 1016.392883300781 363.399169921875 C 1013.777404785156 363.399658203125 1011.131225585938 363.1853637695313 1008.527404785156 362.7622680664063 C 985.4183959960938 359.0068054199219 958.6412353515625 353.2182312011719 930.2921752929688 347.0899047851563 C 902.4197998046875 341.0646667480469 873.598876953125 334.8341979980469 846.1115112304688 330.0830078125 C 831.2448120117188 327.5132446289063 818.2109985351563 325.621337890625 806.2648315429688 324.2987060546875 C 792.7653198242188 322.8041687011719 781.059814453125 322.0777587890625 770.4797973632813 322.0777587890625 C 761.339111328125 322.0777587890625 752.1255493164063 322.5679931640625 743.0957641601563 323.53466796875 C 734.2900390625 324.4775085449219 725.40673828125 325.9003601074219 716.6926879882813 327.7639465332031 C 708.2091064453125 329.5784606933594 699.6419677734375 331.8625183105469 691.2295532226563 334.552978515625 C 683.0550537109375 337.1675109863281 674.790283203125 340.2410888671875 666.664794921875 343.688720703125 C 658.7864990234375 347.0313110351563 650.809814453125 350.822998046875 642.9562377929688 354.9580078125 C 635.3615112304688 358.956787109375 627.6586303710938 363.3944091796875 620.0614624023438 368.1477661132813 C 605.7207641601563 377.1201477050781 591.078125 387.6477661132813 576.540283203125 399.437744140625 C 563.2724609375 410.197998046875 549.55029296875 422.4520263671875 535.7555541992188 435.8598937988281 C 523.3695678710938 447.8979797363281 510.8107604980469 460.9353637695313 497.3609924316406 475.717529296875 C 472.4876708984375 503.0546569824219 449.0412292480469 531.4746704101563 426.366943359375 558.9591674804688 C 392.1955261230469 600.37939453125 359.9190979003906 639.5025024414063 328.2322082519531 668.121826171875 C 311.3179016113281 683.398681640625 295.8460083007813 694.5592041015625 280.9326782226563 702.2408447265625 C 272.9179077148438 706.3689575195313 264.9426574707031 709.5217895507813 257.2283935546875 711.61181640625 C 249.1876678466797 713.7903442382813 241.1340942382813 714.8948974609375 233.2919616699219 714.8948974609375 Z M 1622.473876953125 27.85489845275879 C 1617.802490234375 27.85489845275879 1613.011474609375 27.11312866210938 1608.225341796875 25.64985084533691 C 1608.37744140625 25.27357292175293 1608.52392578125 24.8926944732666 1608.663330078125 24.51106071472168 C 1610.193481445313 23.98983573913574 1611.943725585938 23.74819564819336 1613.638916015625 23.51418304443359 C 1615.355346679688 23.27727890014648 1616.976196289063 23.05370712280273 1618.198852539063 22.55275535583496 C 1619.690307617188 21.94156455993652 1620.415283203125 20.98013496398926 1620.415283203125 19.61299324035645 C 1620.415283203125 16.42989730834961 1620.508422851563 13.34680271148682 1620.692138671875 10.44965934753418 L 1620.716674804688 10.06346893310547 L 1620.34912109375 9.942754745483398 C 1618.149047851563 9.221358299255371 1615.067138671875 8.096193313598633 1610.93359375 6.504926681518555 C 1610.627685546875 2.204963684082031 1609.77294921875 -2.321873426437378 1608.441650390625 -6.722394943237305 C 1608.664428710938 -6.489959239959717 1608.887451171875 -6.257359027862549 1609.110473632813 -6.0246262550354 C 1613.163330078125 -1.798673868179321 1617.353881835938 2.571088075637817 1620.195556640625 6.043706893920898 L 1620.955810546875 6.97275447845459 L 1621.079833984375 5.778707027435303 C 1622.418579101563 -7.120816707611084 1625.769775390625 -16.83200645446777 1631.03955078125 -23.08534049987793 C 1633.35888671875 -25.83748435974121 1636.060546875 -27.91486358642578 1639.0693359375 -29.26033973693848 C 1641.850341796875 -30.5036735534668 1644.916259765625 -31.1343879699707 1648.182373046875 -31.1343879699707 C 1652.31201171875 -31.1343879699707 1656.67333984375 -30.14938735961914 1661.145751953125 -28.20724487304688 C 1665.239624023438 -26.42938804626465 1669.310546875 -23.86938858032227 1672.918090820313 -20.80367469787598 C 1676.422729492188 -17.8258171081543 1679.3974609375 -14.45700740814209 1681.520751953125 -11.06176948547363 C 1683.6962890625 -7.58367395401001 1684.908203125 -4.176530838012695 1685.026000976563 -1.208912014961243 C 1685.153198242188 1.998230814933777 1684.036254882813 4.630373477935791 1681.706665039063 6.614421367645264 C 1679.071044921875 8.859183311462402 1674.948120117188 10.21870708465576 1669.453125 10.65537357330322 C 1665.43359375 10.97561168670654 1660.778442382813 13.65370750427246 1655.387939453125 16.75489807128906 C 1646.79150390625 21.70013618469238 1636.093139648438 27.85489845275879 1622.473876953125 27.85489845275879 Z M 1606.02294921875 -10.70503234863281 C 1602.924194335938 -13.97522926330566 1600.44189453125 -16.69281578063965 1598.574096679688 -19.01986503601074 C 1597.361450195313 -20.53057861328125 1596.523803710938 -21.7351016998291 1596.012939453125 -22.70224571228027 C 1595.364868164063 -23.92914962768555 1595.427490234375 -24.43629264831543 1595.5224609375 -24.6293888092041 C 1595.760009765625 -25.1053409576416 1596.044799804688 -25.16057777404785 1596.238403320313 -25.16057777404785 C 1597.083618164063 -25.16057777404785 1598.792724609375 -23.95915031433105 1601.053833007813 -20.58724594116211 C 1602.86376953125 -17.88835906982422 1604.593627929688 -14.44006252288818 1606.02294921875 -10.70503234863281 Z" stroke="none"/>
    <path d="M 1648.182373046875 -30.6343994140625 C 1644.987182617188 -30.6343994140625 1641.989868164063 -30.0184326171875 1639.2734375 -28.80389404296875 C 1636.333862304688 -27.4896240234375 1633.692138671875 -25.457275390625 1631.421997070313 -22.76318359375 C 1626.273559570313 -16.654052734375 1622.976928710938 -7.174072265625 1621.620727539063 5.41900634765625 C 1623.53955078125 7.795166015625 1624.642700195313 9.5224609375 1625.082641601563 10.8360595703125 L 1625.083862304688 10.83990478515625 L 1625.085083007813 10.84344482421875 C 1625.200317382813 11.19677734375 1625.145263671875 11.56634521484375 1624.93408203125 11.8572998046875 C 1624.69677734375 12.1844482421875 1624.326049804688 12.35015869140625 1623.832397460938 12.35015869140625 C 1623.465087890625 12.35015869140625 1622.8212890625 12.27410888671875 1621.11669921875 11.75885009765625 C 1620.983032226563 14.26849365234375 1620.915283203125 16.90435791015625 1620.915283203125 19.61297607421875 C 1620.915283203125 21.1837158203125 1620.065063476563 22.3282470703125 1618.388671875 23.015380859375 C 1617.107421875 23.5401611328125 1615.455810546875 23.76824951171875 1613.707153320313 24.0096435546875 C 1612.119262695313 24.22869873046875 1610.48193359375 24.45477294921875 1609.048828125 24.91064453125 C 1608.996826171875 25.04986572265625 1608.943969726563 25.18890380859375 1608.890380859375 25.3275146484375 C 1613.45654296875 26.6732177734375 1618.020751953125 27.35491943359375 1622.4736328125 27.35491943359375 C 1635.959106445313 27.35491943359375 1646.593383789063 21.2373046875 1655.13818359375 16.32159423828125 C 1660.5810546875 13.19036865234375 1665.28173828125 10.486083984375 1669.413330078125 10.15679931640625 C 1674.8017578125 9.72869873046875 1678.82861328125 8.408935546875 1681.382690429688 6.23370361328125 C 1683.58935546875 4.35418701171875 1684.647216796875 1.8568115234375 1684.526245117188 -1.18939208984375 C 1684.296020507813 -6.994384765625 1679.72412109375 -14.3643798828125 1672.594360351563 -20.4227294921875 C 1669.023681640625 -23.45703125 1664.995971679688 -25.9903564453125 1660.94677734375 -27.7486572265625 C 1656.537475585938 -29.6634521484375 1652.242919921875 -30.6343994140625 1648.182373046875 -30.6343994140625 M 1596.238647460938 -24.66058349609375 C 1596.182739257813 -24.66058349609375 1596.098388671875 -24.6605224609375 1595.972045898438 -24.41082763671875 C 1595.952514648438 -24.35174560546875 1595.705322265625 -23.3677978515625 1599.066772460938 -19.205078125 C 1600.527465820313 -17.39617919921875 1602.351440429688 -15.35662841796875 1604.544189453125 -13.00604248046875 C 1603.355590820313 -15.74395751953125 1602.020141601563 -18.24871826171875 1600.638427734375 -20.30938720703125 C 1598.329833984375 -23.75177001953125 1596.7509765625 -24.66082763671875 1596.238647460938 -24.66058349609375 M 1424.809326171875 -6.59771728515625 C 1359.296264648438 -6.5953369140625 1289.18212890625 1.66607666015625 1214.951171875 10.41229248046875 C 1174.530517578125 15.1749267578125 1132.733642578125 20.09967041015625 1090.380249023438 23.80706787109375 C 1067.515014648438 25.8087158203125 1046.560546875 27.28082275390625 1026.31982421875 28.3074951171875 C 1003.510070800781 29.46466064453125 982.2574462890625 30.02728271484375 961.347900390625 30.02728271484375 C 884.8638916015625 30.02728271484375 781.3717041015625 22.8082275390625 671.8029174804688 15.1651611328125 C 607.4865112304688 10.6787109375 540.9805297851563 6.0396728515625 475.311767578125 2.504638671875 C 400.9193115234375 -1.5001220703125 338.693603515625 -3.44677734375 285.079345703125 -3.44677734375 C 256.271240234375 -3.44677734375 229.2755126953125 -2.8751220703125 204.8421630859375 -1.74774169921875 C 178.6624755859375 -0.53985595703125 154.45166015625 1.35015869140625 132.8822021484375 3.86944580078125 C 110.0155029296875 6.54034423828125 89.3345947265625 10.0093994140625 71.41357421875 14.18011474609375 C 62.09814453125 16.34820556640625 53.3155517578125 18.7548828125 45.309814453125 21.333251953125 C 37.11669921875 23.9718017578125 29.4981689453125 26.86749267578125 22.666259765625 29.93939208984375 C 12.654296875 34.44110107421875 3.7088623046875 38.4420166015625 -4.1834716796875 41.9722900390625 C -24.815673828125 51.20062255859375 -38.4461669921875 57.29705810546875 -47.0386962890625 61.5491943359375 C -51.4085693359375 63.7115478515625 -54.3026123046875 65.30963134765625 -56.1463623046875 66.5784912109375 C -58.361572265625 68.102783203125 -58.3582763671875 68.7080078125 -58.3575439453125 68.7130126953125 C -58.3563232421875 68.718017578125 -58.207275390625 69.20916748046875 -55.87255859375 69.861083984375 C -54.0589599609375 70.36773681640625 -51.44140625 70.83868408203125 -48.41015625 71.3841552734375 C -42.7054443359375 72.41058349609375 -35.605712890625 73.688232421875 -27.863525390625 76.13677978515625 C -23.640869140625 77.4725341796875 -19.6483154296875 79.03729248046875 -15.9970703125 80.78778076171875 C -11.7530517578125 82.822265625 -7.8031005859375 85.18585205078125 -4.256591796875 87.812744140625 C -0.2701416015625 90.765869140625 3.3326416015625 94.1446533203125 6.451904296875 97.85491943359375 C 9.8836669921875 101.93701171875 12.829345703125 106.5386962890625 15.2073974609375 111.5322875976563 C 17.7838134765625 116.9422607421875 19.7667236328125 122.9649047851563 21.1007080078125 129.4327392578125 C 22.531005859375 136.3660888671875 23.2562255859375 144.0070190429688 23.2562255859375 152.1432495117188 C 23.2562255859375 168.1049194335938 23.8629150390625 211.909423828125 29.481689453125 273.7760925292969 C 31.95556640625 301.0146484375 35.079345703125 328.0410766601563 38.7664794921875 354.1044311523438 C 42.96337890625 383.7715759277344 47.9202880859375 412.3753662109375 53.4996337890625 439.1215515136719 C 66.6910400390625 502.3579711914063 83.4415283203125 555.8970336914063 103.2860107421875 598.2518310546875 C 108.819091796875 610.0606079101563 114.6707763671875 621.1477661132813 120.6788330078125 631.2051391601563 C 126.934326171875 641.6763305664063 133.53076171875 651.3184814453125 140.2852783203125 659.8637084960938 C 147.300048828125 668.7382202148438 154.6785888671875 676.6741943359375 162.2158203125 683.4513549804688 C 170.0257568359375 690.4736938476563 178.222900390625 696.4463500976563 186.579345703125 701.2034912109375 C 194.4114990234375 705.6620483398438 202.3619384765625 709.0286865234375 210.2095947265625 711.2098999023438 C 217.8138427734375 713.3232421875 225.579833984375 714.3948974609375 233.291748046875 714.3948974609375 C 241.08984375 714.3948974609375 249.099365234375 713.2960815429688 257.097412109375 711.1292114257813 C 264.7779541015625 709.0484619140625 272.7200927734375 705.908447265625 280.703369140625 701.7963256835938 C 295.577880859375 694.1346435546875 311.0150146484375 682.9982299804688 327.89697265625 667.7506103515625 C 359.5567626953125 639.1560668945313 391.82177734375 600.0465698242188 425.98095703125 558.640869140625 C 448.6593017578125 531.1517944335938 472.109619140625 502.72705078125 496.9912109375 475.380859375 C 510.4476318359375 460.59130859375 523.013671875 447.5465698242188 535.406982421875 435.5010986328125 C 549.406982421875 421.8939514160156 562.7588500976563 409.9706115722656 576.2252807617188 399.0491943359375 C 590.7788696289063 387.246337890625 605.4381713867188 376.70703125 619.7962646484375 367.7236938476563 C 627.4036254882813 362.9637145996094 635.117431640625 358.5198974609375 642.723388671875 354.515380859375 C 650.589111328125 350.3739318847656 658.578369140625 346.5763244628906 666.4693603515625 343.2282409667969 C 674.6090698242188 339.774658203125 682.8881225585938 336.6956176757813 691.0772094726563 334.0765686035156 C 699.5053100585938 331.3810729980469 708.08837890625 329.092529296875 716.587890625 327.27490234375 C 725.319091796875 325.4075317382813 734.2196044921875 323.9818115234375 743.0424194335938 323.0372924804688 C 752.0900268554688 322.0686950683594 761.3212280273438 321.5775146484375 770.4797973632813 321.5775146484375 C 781.078369140625 321.5775146484375 792.8016967773438 322.3049011230469 806.31982421875 323.8015747070313 C 818.2760009765625 325.1251220703125 831.31982421875 327.0187072753906 846.1964721679688 329.5901489257813 C 873.69384765625 334.3429870605469 902.5200805664063 340.5746459960938 930.397216796875 346.60107421875 C 958.7400512695313 352.7279968261719 985.51123046875 358.515380859375 1008.607666015625 362.2687072753906 C 1011.181213378906 362.6870422363281 1013.80078125 362.899169921875 1016.392883300781 362.899169921875 C 1020.152648925781 362.899169921875 1024.005737304688 362.4518127441406 1027.844970703125 361.5691833496094 C 1031.535034179688 360.7213134765625 1035.343383789063 359.4411010742188 1039.164794921875 357.7641906738281 C 1046.296875 354.6346740722656 1053.677490234375 350.08203125 1061.727905273438 343.8463134765625 C 1076.858154296875 332.1272888183594 1092.219360351563 316.0748901367188 1108.482666015625 299.0801391601563 C 1119.09130859375 287.9944152832031 1130.06103515625 276.5313110351563 1141.710571289063 265.4734802246094 C 1154.921264648438 252.9337158203125 1167.078125 242.7886962890625 1178.87646484375 234.4587097167969 C 1182.093872070313 232.1870422363281 1186.371948242188 230.4889526367188 1191.591918945313 229.4115600585938 C 1196.39794921875 228.4196472167969 1202.18505859375 227.9168090820313 1208.792724609375 227.9168090820313 C 1220.8095703125 227.9168090820313 1236.06005859375 229.5541687011719 1255.415283203125 232.9225158691406 C 1272.47021484375 235.890625 1290.455078125 239.78466796875 1307.84765625 243.5503845214844 C 1337.470947265625 249.9641723632813 1365.45166015625 256.0225219726563 1382.480224609375 256.0225219726563 C 1387.10791015625 256.0225219726563 1390.807861328125 255.5665588378906 1393.477172851563 254.6672668457031 C 1396.505981445313 253.6467895507813 1399.175048828125 252.0813293457031 1401.636474609375 249.8810729980469 C 1403.8271484375 247.9230041503906 1405.7919921875 245.5137023925781 1407.643188476563 242.5158386230469 C 1411.099609375 236.9182434082031 1413.48095703125 230.3551330566406 1415.784057617188 224.0079956054688 C 1417.904052734375 218.1651306152344 1419.906494140625 212.6463317871094 1422.54931640625 208.5439453125 C 1424.00390625 206.2865600585938 1425.53955078125 204.6275024414063 1427.244384765625 203.4720458984375 C 1429.155517578125 202.1767883300781 1431.316772460938 201.5198974609375 1433.667724609375 201.5198974609375 C 1436.801513671875 201.5198974609375 1440.30810546875 202.6384582519531 1444.3876953125 204.9394226074219 L 1444.4521484375 204.9758605957031 L 1444.5107421875 205.0213317871094 C 1449.864135742188 209.1891784667969 1455.07080078125 212.3291931152344 1459.985961914063 214.3546447753906 C 1464.646728515625 216.27490234375 1469.182861328125 217.2484741210938 1473.468627929688 217.2484741210938 C 1477.358154296875 217.2484741210938 1481.165283203125 216.4448852539063 1484.783813476563 214.8603820800781 C 1488.234130859375 213.3494262695313 1491.627685546875 211.0789489746094 1494.870483398438 208.11181640625 C 1497.942138671875 205.3013305664063 1500.978881835938 201.7739562988281 1503.895751953125 197.6275024414063 C 1506.619140625 193.756591796875 1509.333618164063 189.2094116210938 1511.96435546875 184.1123046875 C 1516.522216796875 175.2808227539063 1521.033203125 164.4363403320313 1525.755249023438 150.9586791992188 C 1529.932861328125 139.0358276367188 1533.747436523438 126.6075439453125 1537.4365234375 114.5884399414063 C 1542.504516601563 98.0770263671875 1547.291259765625 82.4813232421875 1552.3955078125 70.2255859375 C 1558.193359375 56.30487060546875 1563.663208007813 48.53131103515625 1569.609375 45.76177978515625 C 1571.203857421875 45.0189208984375 1576.064331054688 43.98822021484375 1581.692138671875 42.794921875 C 1584.966064453125 42.1005859375 1588.351196289063 41.38275146484375 1591.06201171875 40.71966552734375 C 1595.008422851563 39.75439453125 1595.900756835938 39.28778076171875 1596.101928710938 39.131591796875 C 1597.846557617188 37.77838134765625 1599.443359375 36.29302978515625 1600.857299804688 34.70904541015625 C 1599.053588867188 31.8704833984375 1595.846435546875 26.7041015625 1592.276977539063 20.88568115234375 C 1579.978149414063 15.938720703125 1566.926147460938 11.6212158203125 1553.479370117188 8.05206298828125 C 1540.474609375 4.59991455078125 1526.656005859375 1.72991943359375 1512.407470703125 -0.47821044921875 C 1498.841430664063 -2.58056640625 1484.3984375 -4.15771484375 1469.478881835938 -5.16632080078125 C 1455.420288085938 -6.11676025390625 1440.391235351563 -6.59844970703125 1424.809326171875 -6.59771728515625 M 1609.4755859375 -4.92169189453125 C 1610.472045898438 -1.21551513671875 1611.130126953125 2.54376220703125 1611.408569335938 6.15185546875 C 1614.679443359375 7.40869140625 1617.275512695313 8.36639404296875 1619.2841796875 9.05712890625 C 1619.359985351563 8.03131103515625 1619.447265625 7.0218505859375 1619.545288085938 6.0406494140625 C 1616.896850585938 2.84552001953125 1613.166015625 -1.07171630859375 1609.4755859375 -4.92169189453125 M 1579.43408203125 -4.402099609375 C 1581.604248046875 -0.55328369140625 1586.977783203125 8.41546630859375 1593.636840820313 19.277587890625 C 1596.389282226563 20.3917236328125 1599.153076171875 21.55670166015625 1601.85693359375 22.74298095703125 C 1603.152099609375 23.3111572265625 1604.455444335938 23.8321533203125 1605.739379882813 24.294677734375 C 1606.247802734375 23.93438720703125 1606.824340820313 23.622802734375 1607.482543945313 23.3521728515625 C 1609.1201171875 18.5814208984375 1609.796508789063 13.27362060546875 1609.495727539063 7.557861328125 C 1603.819091796875 5.361083984375 1597.332763671875 2.7470703125 1591.5869140625 0.43133544921875 C 1586.917724609375 -1.4501953125 1582.136474609375 -3.3770751953125 1579.43408203125 -4.402099609375 M 1606.16357421875 26.561279296875 C 1605.707275390625 27.050048828125 1605.385009765625 27.62261962890625 1605.1845703125 28.29803466796875 C 1605.175170898438 28.36444091796875 1605.159301757813 28.488525390625 1605.137817382813 28.6612548828125 C 1605.513427734375 27.97833251953125 1605.865478515625 27.2811279296875 1606.192993164063 26.5712890625 C 1606.183227539063 26.56793212890625 1606.17333984375 26.56463623046875 1606.16357421875 26.561279296875 M 1648.182373046875 -31.63427734375 C 1674.516845703125 -31.63427734375 1704.833862304688 8.34619140625 1669.49267578125 11.1536865234375 C 1659.339233398438 11.96282958984375 1644.828979492188 28.35479736328125 1622.4736328125 28.35479736328125 C 1617.846923828125 28.35479736328125 1612.8837890625 27.65252685546875 1607.55419921875 25.96478271484375 C 1607.812377929688 25.3536376953125 1608.051879882813 24.73822021484375 1608.273681640625 24.1181640625 C 1613.005126953125 22.39703369140625 1619.915283203125 23.4739990234375 1619.915283203125 19.61297607421875 C 1619.915283203125 16.36474609375 1620.010009765625 13.30584716796875 1620.193237304688 10.41796875 C 1621.990234375 11.00732421875 1623.274047851563 11.35015869140625 1623.83251953125 11.35015869140625 C 1624.072143554688 11.35015869140625 1624.177856445313 11.28729248046875 1624.13427734375 11.1536865234375 C 1623.687866210938 9.820556640625 1622.393310546875 7.94012451171875 1620.582397460938 5.72705078125 C 1623.47607421875 -22.14996337890625 1635.35498046875 -31.63427734375 1648.182373046875 -31.63427734375 Z M 1596.238159179688 -25.66058349609375 C 1598.807495117188 -25.662109375 1603.929565429688 -18.54931640625 1607.301513671875 -8.63623046875 C 1600.31494140625 -15.948974609375 1594.051879882813 -22.7730712890625 1595.073608398438 -24.85009765625 C 1595.348266601563 -25.400146484375 1595.746948242188 -25.6602783203125 1596.238159179688 -25.66058349609375 Z M 1607.301513671875 -8.63623046875 C 1612.093139648438 -3.6209716796875 1617.224731445313 1.62371826171875 1620.582397460938 5.72705078125 C 1620.425659179688 7.23699951171875 1620.2958984375 8.79864501953125 1620.193237304688 10.41796875 C 1617.732666015625 9.61102294921875 1614.30810546875 8.3421630859375 1610.456176757813 6.856689453125 C 1610.099609375 1.36834716796875 1608.896728515625 -3.9466552734375 1607.301513671875 -8.63623046875 Z M 1424.809326171875 -7.5977783203125 C 1485.555419921875 -7.60009765625 1542.017211914063 -0.47149658203125 1592.956787109375 20.081298828125 C 1596.810180664063 26.36492919921875 1600.342529296875 32.0535888671875 1602.102783203125 34.802490234375 C 1600.559814453125 36.61077880859375 1598.7724609375 38.32586669921875 1596.71484375 39.92181396484375 C 1594.439819335938 41.689208984375 1573.361938476563 45.1170654296875 1570.031494140625 46.668212890625 C 1539.3330078125 60.96746826171875 1529.428466796875 218.2484741210938 1473.468627929688 218.2484741210938 C 1464.798095703125 218.2484741210938 1455.027221679688 214.4762573242188 1443.896484375 205.8103637695313 C 1439.84765625 203.5267028808594 1436.4951171875 202.5199890136719 1433.667724609375 202.5199890136719 C 1414.837768554688 202.5199890136719 1419.134765625 247.0787963867188 1393.796508789063 255.6148986816406 C 1390.904663085938 256.5890808105469 1387.07568359375 257.0226135253906 1382.480346679688 257.0226135253906 C 1345.468383789063 257.0226135253906 1258.5908203125 228.916748046875 1208.792724609375 228.916748046875 C 1196.14208984375 228.916748046875 1185.893798828125 230.728271484375 1179.453125 235.2756042480469 C 1112.5400390625 282.5189819335938 1068.192016601563 363.8992614746094 1016.392944335938 363.8992614746094 C 1013.761779785156 363.8992614746094 1011.120788574219 363.6903381347656 1008.447204589844 363.255859375 C 939.7152709960938 352.0860900878906 836.8705444335938 322.5775146484375 770.4797973632813 322.5775146484375 C 509.495361328125 322.5775146484375 383.26123046875 715.3948364257813 233.2918701171875 715.3948364257813 C 217.855712890625 715.3948364257813 202.1971435546875 711.2448120117188 186.0845947265625 702.072509765625 C 48.3521728515625 623.6663208007813 22.2562255859375 263.130615234375 22.2562255859375 152.1432495117188 C 22.2562255859375 21.9532470703125 -161.375 111.5939331054688 22.2562255859375 29.02728271484375 C 78.088134765625 3.92333984375 173.509521484375 -4.44671630859375 285.0794677734375 -4.44671630859375 C 508.239501953125 -4.44671630859375 796.0665283203125 29.02728271484375 961.347900390625 29.02728271484375 C 1127.625244140625 29.02728271484375 1287.15771484375 -7.59246826171875 1424.809326171875 -7.5977783203125 Z M 1577.457397460938 -6.13226318359375 C 1579.007690429688 -5.87982177734375 1597.242919921875 1.76104736328125 1610.456176757813 6.856689453125 C 1610.8291015625 12.59698486328125 1610.27490234375 18.524658203125 1608.273681640625 24.1181640625 C 1607.393188476563 24.4384765625 1606.588745117188 24.855224609375 1605.917724609375 25.41925048828125 C 1604.456665039063 24.90814208984375 1602.971069335938 24.32373046875 1601.455322265625 23.65869140625 C 1598.6396484375 22.42333984375 1595.807373046875 21.23150634765625 1592.956787109375 20.081298828125 C 1585.603393554688 8.09051513671875 1577.078857421875 -6.07049560546875 1577.457397460938 -6.13226318359375 Z M 1605.917724609375 25.41925048828125 C 1606.466064453125 25.61114501953125 1607.013427734375 25.79351806640625 1607.55419921875 25.96478271484375 C 1606.546997070313 28.34930419921875 1605.257934570313 30.66033935546875 1603.645263671875 32.85595703125 C 1603.899291992188 30.5743408203125 1604.193359375 28.0806884765625 1604.208862304688 28.072021484375 C 1604.533935546875 26.93536376953125 1605.134765625 26.0772705078125 1605.917724609375 25.41925048828125 Z M 1603.645263671875 32.85595703125 C 1603.444702148438 34.65802001953125 1603.269165039063 36.32794189453125 1603.275512695313 36.53582763671875 C 1603.275634765625 36.5394287109375 1603.274658203125 36.541259765625 1603.272583007813 36.541259765625 C 1603.233764648438 36.541259765625 1602.8125 35.9107666015625 1602.102783203125 34.802490234375 C 1602.647094726563 34.1646728515625 1603.16064453125 33.51580810546875 1603.645263671875 32.85595703125 Z" stroke="none" fill="#eee"/>
  </g>
</svg>
